Coordinates
version=1
nRows=14
nColumns=24
inDegrees=yes

Units are S.I. units (second, meters, Newtons, ...)
Angles are in degrees.

endheader
time	pelvis_tilt	pelvis_list	pelvis_rotation	pelvis_tx	pelvis_ty	pelvis_tz	hip_flexion_r	hip_adduction_r	hip_rotation_r	knee_angle_r	ankle_angle_r	subtalar_angle_r	mtp_angle_r	hip_flexion_l	hip_adduction_l	hip_rotation_l	knee_angle_l	ankle_angle_l	subtalar_angle_l	mtp_angle_l	lumbar_extension	lumbar_bending	lumbar_rotation
      0.74200000	     -1.17998309	      2.43356306	     10.52318799	     -0.00138008	      0.98284317	      0.25403668	     29.22254885	     -5.00531729	     -7.27092144	      1.36217519	      9.36772786	     -3.27276894	      7.41477335	    -22.44073815	      3.11165906	     10.03164689	     -5.54603767	     13.60082007	     -3.21492441	     -1.61802001	     -2.33933546	     -5.29676665	     -6.99233863
      0.74616667	     -1.18489806	      2.33141455	     10.76478903	      0.00505271	      0.98209506	      0.25405099	     29.31661404	     -4.98953981	     -7.30437133	      0.66805808	      9.47154443	     -3.63262836	      7.42696315	    -22.68163040	      2.83185788	     10.03250611	     -5.71801623	     13.38660802	     -3.05931817	     -1.61870193	     -2.25322222	     -5.19016590	     -7.07293222
      0.75033333	     -1.19395486	      2.22294651	     10.98210715	      0.01156445	      0.98133375	      0.25414366	     29.37398313	     -4.94058301	     -7.12263747	      0.04906385	      9.34284240	     -4.36811022	      7.48637239	    -22.90556760	      2.54685507	      9.91523693	     -5.91282300	     13.21290613	     -2.75245723	     -1.57236552	     -2.11419580	     -5.07214145	     -7.47014419
      0.75450000	     -1.20078152	      2.11370063	     11.21578222	      0.01808899	      0.98061519	      0.25423139	     29.43465480	     -4.89572183	     -7.01431982	     -0.60602694	      9.19818887	     -5.03877282	      7.56988258	    -23.12153230	      2.25479089	      9.85755474	     -6.12058863	     12.97696171	     -2.53865819	     -1.49219775	     -2.00371248	     -4.96206754	     -7.68862125
      0.75866667	     -1.20753566	      1.99459132	     11.43834129	      0.02465803	      0.97991269	      0.25435906	     29.49668345	     -4.82985777	     -6.89450046	     -1.27325962	      8.98048320	     -5.73387327	      7.68072972	    -23.33111447	      1.95409713	      9.79118375	     -6.33347822	     12.71275070	     -2.35449216	     -1.37336995	     -1.89259420	     -4.84928165	     -7.91662745
      0.76283333	     -1.21904037	      1.86703853	     11.65419120	      0.03127046	      0.97922601	      0.25452548	     29.56209455	     -4.74585728	     -6.76325521	     -1.94510111	      8.68743767	     -6.46078958	      7.81761922	    -23.52661412	      1.64558472	      9.71430426	     -6.55677402	     12.41636466	     -2.18272241	     -1.21391695	     -1.76200230	     -4.72900219	     -8.13912407
      0.76700000	     -1.20625633	      1.74129363	     11.87266104	      0.03788676	      0.97859981	      0.25472155	     29.59493389	     -4.65119889	     -6.61117949	     -2.60928887	      8.31283262	     -7.27438500	      8.02630623	    -23.72397892	      1.33100877	      9.61979537	     -6.82384415	     12.12103433	     -2.01185638	     -0.95446697	     -1.68565787	     -4.60765816	     -8.35753250
      0.77116667	     -1.22191489	      1.59267759	     12.07166474	      0.04458249	      0.97795215	      0.25497258	     29.66803053	     -4.52359141	     -6.46744841	     -3.29134848	      7.87733799	     -8.05638914	      8.26296190	    -23.89182869	      1.00237369	      9.51332406	     -7.07619741	     11.76638809	     -1.85414166	     -0.64512512	     -1.53521119	     -4.46995316	     -8.56207939
      0.77533333	     -1.17388052	      1.40377497	     12.24619099	      0.05135618	      0.97739944	      0.25527299	     29.67976583	     -4.32821222	     -6.37423152	     -3.97168739	      7.37628439	     -8.80206273	     10.35392411	    -24.12010847	      0.61879228	      9.28550883	     -7.31521428	     11.35523847	     -1.55999832	      2.23355529	     -1.44036524	     -4.25103292	     -8.57971300
      0.77950000	     -1.26176094	      1.25667986	     12.42111729	      0.05810275	      0.97671031	      0.25560377	     29.86512848	     -4.19699534	     -6.24986894	     -4.72642655	      6.84662992	     -9.48312355	     10.38953872	    -24.19558147	      0.31814048	      9.22867467	     -7.58738468	     10.90012232	     -1.55369194	      2.32677857	     -1.20076226	     -4.16972075	     -8.90973076
      0.78366667	     -1.27650933	      1.08291292	     12.58685448	      0.06488202	      0.97615443	      0.25598089	     29.95480412	     -4.00839336	     -6.09244439	     -5.43237348	      6.23375949	    -10.29535153	     10.46548803	    -24.32303471	     -0.02801785	      9.08165593	     -7.89420020	     10.44631470	     -1.44359811	      2.50093470	     -1.04441598	     -4.00376552	     -9.09079450
      0.78783333	     -1.28962856	      0.89285979	     12.73081938	      0.07170006	      0.97561863	      0.25641078	     30.06276824	     -3.78877311	     -5.94253648	     -6.17083121	      5.59287156	    -11.06733484	     10.58206216	    -24.44294760	     -0.38516582	      8.89689458	     -8.20718425	      9.96537347	     -1.30421106	      2.76155203	     -0.87994415	     -3.83341434	     -9.24558104
      0.79200000	     -1.32783298	      0.68725783	     12.85593989	      0.07854604	      0.97508417	      0.25688857	     30.21354279	     -3.54571045	     -5.79183703	     -6.93535082	      4.93204112	    -11.79716275	     10.71599707	    -24.51905484	     -0.74529870	      8.70054204	     -8.54326017	      9.46069231	     -1.18261057	      3.06942119	     -0.67410814	     -3.64327130	     -9.39027168
      0.79616667	     -1.34244761	      0.47134206	     12.96244462	      0.08541108	      0.97460738	      0.25740953	     30.35238442	     -3.27478797	     -5.63992314	     -7.71927784	      4.25388335	    -12.50964142	     10.88152747	    -24.60838569	     -1.11547457	      8.47245883	     -8.89162983	      8.91449868	     -1.05889542	      3.46573412	     -0.49697633	     -3.44139454	     -9.51922808
